<?xml version="1.0" encoding="UTF-8"?>
<svg id="Layer_5" data-name="Layer 5" xmlns="http://www.w3.org/2000/svg" viewBox="0 0 574.93 746.93">
  <defs>
    <style>
      .cls-1 {
        fill: #fff;
      }
    </style>
  </defs>
  <path class="cls-1" d="M496.28,227.02l-183.63-104.93c-16.23-9.37-36.23-9.37-52.46,0l-183.63,104.93c-16.22,9.36-26.21,26.66-26.23,45.38v209.86c.02,18.72,10.02,36.02,26.23,45.38l183.63,104.93c16.23,9.37,36.23,9.37,52.46,0l183.63-104.93c16.22-9.36,26.21-26.66,26.23-45.38v-209.86c-.02-18.72-10.02-36.02-26.23-45.38ZM423.28,257.27c-26.84,60.17-83.2,143.32-124.47,186.65-11.58,12.1-25.84,21.32-41.63,26.91-.31,3.98-1.05,9.44-2.81,15.23-3.53,11.56-11.7,25.95-29.96,30.52-17.69,4.22-36.02,5-54,2.32-3.34-.55-6.63-1.34-9.86-2.37-2.97-.91-5.75-2.38-8.18-4.33-1.6-1.35-2.84-3.09-3.58-5.05-.93-2.51-.91-5.28.07-7.77,1.67-4.3,5.54-6.67,8.09-7.93,6.91-3.46,10.96-7.95,15.21-14.49,1.67-2.53,3.23-5.21,5.03-8.28l2.05-3.47c2.65-4.47,5.72-9.47,9.58-14.88,9.26-12.96,21.07-16.23,30.63-15.72,2.22.14,4.26.42,6.1.84,1.09-3.02,2.49-6.67,4.18-10.67,4.58-10.86,11.54-24.89,20.82-36.3,38.17-46.84,108.41-108.87,159.94-142.17,3.26-2.1,7.51-1.82,10.46.7,2.96,2.52,3.9,6.69,2.32,10.25Z"/>
</svg>