<?xml version="1.0" encoding="UTF-8"?>
<svg id="Layer_5" data-name="Layer 5" xmlns="http://www.w3.org/2000/svg" viewBox="0 0 574.93 746.93">
  <defs>
    <style>
      .cls-1 {
        fill: #ffd080;
        stroke: #ffd080;
        stroke-linecap: round;
        stroke-linejoin: round;
        stroke-width: 63.39px;
      }

      .cls-2 {
        fill: #7c64a0;
      }
    </style>
  </defs>
  <path class="cls-1" d="M495.47,457.41v-184.45c-.02-16.46-8.8-31.66-23.06-39.89l-161.39-92.22c-14.27-8.24-31.84-8.24-46.11,0l-161.39,92.22c-14.25,8.23-23.04,23.43-23.06,39.89v184.45c.02,16.46,8.8,31.66,23.06,39.89l161.39,92.22c14.27,8.24,31.84,8.24,46.11,0l161.39-92.22c14.25-8.23,23.04-23.43,23.06-39.89Z"/>
  <path class="cls-2" d="M423.96,227.73c2.99,2.55,3.94,6.77,2.34,10.36-27.13,60.82-84.1,144.86-125.8,188.66-11.7,12.23-26.12,21.55-42.08,27.2-.32,4.02-1.06,9.54-2.84,15.39-3.56,11.68-11.83,26.22-30.28,30.85-17.87,4.26-36.4,5.06-54.58,2.34-3.38-.56-6.71-1.36-9.96-2.39-3.01-.92-5.81-2.41-8.26-4.38-1.62-1.37-2.87-3.12-3.62-5.11-.94-2.54-.92-5.33.07-7.85,1.68-4.34,5.6-6.74,8.17-8.01,6.99-3.49,11.08-8.03,15.37-14.65,1.68-2.55,3.26-5.27,5.09-8.37l2.07-3.51c2.68-4.52,5.78-9.57,9.68-15.04,9.36-13.1,21.3-16.4,30.96-15.89,2.25.14,4.3.43,6.17.85,1.1-3.05,2.52-6.74,4.22-10.78,4.63-10.98,11.67-25.16,21.05-36.69,38.58-47.34,109.58-110.04,161.66-143.69,3.29-2.12,7.59-1.84,10.57.71"/>
</svg>