<?xml version="1.0" encoding="UTF-8"?>
<svg id="Layer_5" data-name="Layer 5" xmlns="http://www.w3.org/2000/svg" viewBox="0 0 574.93 746.93">
  <defs>
    <style>
      .cls-1 {
        fill: #ffb343;
      }
    </style>
  </defs>
  <path class="cls-1" d="M496.41,227.79l-182.69-104.39c-16.15-9.32-36.05-9.32-52.2,0l-182.69,104.39c-16.13,9.31-26.08,26.52-26.1,45.15v208.78c.02,18.63,9.96,35.84,26.1,45.15l182.69,104.39c16.15,9.32,36.05,9.32,52.2,0l182.69-104.39c16.13-9.31,26.08-26.52,26.1-45.15v-208.78c-.02-18.63-9.97-35.84-26.1-45.15ZM423.79,257.89c-26.7,59.86-82.78,142.59-123.83,185.7-11.52,12.04-25.71,21.21-41.42,26.77-.31,3.96-1.05,9.39-2.79,15.15-3.51,11.5-11.64,25.81-29.81,30.37-17.59,4.2-35.83,4.98-53.72,2.3-3.32-.55-6.6-1.34-9.81-2.36-2.96-.91-5.72-2.37-8.13-4.31-1.6-1.34-2.82-3.07-3.56-5.03-.93-2.5-.91-5.25.07-7.73,1.66-4.28,5.52-6.63,8.05-7.89,6.88-3.44,10.91-7.91,15.13-14.42,1.66-2.51,3.21-5.18,5.01-8.24l2.04-3.46c2.64-4.45,5.69-9.42,9.53-14.8,9.21-12.9,20.96-16.14,30.47-15.64,2.21.14,4.24.42,6.07.84,1.08-3,2.48-6.63,4.15-10.61,4.55-10.8,11.48-24.77,20.72-36.11,37.98-46.6,107.86-108.31,159.12-141.44,3.24-2.09,7.47-1.81,10.4.7,2.94,2.51,3.88,6.66,2.3,10.19Z"/>
</svg>