<?xml version="1.0" encoding="UTF-8"?>
<svg id="Layer_4" data-name="Layer 4" xmlns="http://www.w3.org/2000/svg" viewBox="0 0 1483.21 746.93">
  <defs>
    <style>
      .cls-1, .cls-2 {
        fill: #5d4777;
      }

      .cls-2 {
        stroke: #5d4777;
        stroke-width: 26.91px;
      }

      .cls-2, .cls-3 {
        stroke-linecap: round;
        stroke-linejoin: round;
      }

      .cls-3 {
        stroke: #ffb343;
        stroke-width: 35px;
      }

      .cls-3, .cls-4 {
        fill: #ffb343;
      }
    </style>
  </defs>
  <path class="cls-2" d="M271.77,185.39v-71.26c0-6.36-3.4-12.23-8.91-15.41l-62.35-35.63c-5.51-3.18-12.3-3.18-17.81,0l-62.35,35.63c-5.51,3.18-8.9,9.05-8.91,15.41v71.26c0,6.36,3.4,12.23,8.91,15.41l62.35,35.63c5.51,3.18,12.3,3.18,17.81,0l62.35-35.63c5.51-3.18,8.9-9.05,8.91-15.41Z"/>
  <path class="cls-3" d="M442.75,427.56v-101.83c0-9.09-4.86-17.48-12.73-22.02l-89.11-50.92c-7.88-4.55-17.58-4.55-25.46,0l-89.11,50.92c-7.87,4.54-12.72,12.94-12.73,22.02v101.83c0,9.09,4.86,17.48,12.73,22.02l89.11,50.92c7.88,4.55,17.58,4.55,25.46,0l89.11-50.92c7.87-4.54,12.72-12.94,12.73-22.02Z"/>
  <path class="cls-2" d="M271.21,639.15v-71.26c0-6.36-3.4-12.23-8.91-15.41l-62.35-35.63c-5.51-3.18-12.3-3.18-17.81,0l-62.35,35.63c-5.51,3.18-8.9,9.05-8.91,15.41v71.26c0,6.36,3.4,12.23,8.91,15.41l62.35,35.63c5.51,3.18,12.3,3.18,17.81,0l62.35-35.63c5.51-3.18,8.9-9.05,8.91-15.41Z"/>
  <path class="cls-1" d="M403.27,300.75c1.65,1.41,2.18,3.74,1.29,5.72-14.98,33.58-46.43,79.98-69.46,104.16-6.46,6.75-14.42,11.9-23.23,15.02-.18,2.22-.59,5.27-1.57,8.5-1.97,6.45-6.53,14.48-16.72,17.03-9.87,2.35-20.1,2.79-30.13,1.29-1.86-.31-3.7-.75-5.5-1.32-1.66-.51-3.21-1.33-4.56-2.42-.9-.75-1.58-1.72-2-2.82-.52-1.4-.51-2.95.04-4.34.93-2.4,3.09-3.72,4.51-4.42,3.86-1.93,6.12-4.43,8.49-8.09.93-1.41,1.8-2.91,2.81-4.62l1.15-1.94c1.48-2.5,3.19-5.29,5.35-8.3,5.17-7.23,11.76-9.06,17.09-8.77,1.24.08,2.38.23,3.41.47.61-1.68,1.39-3.72,2.33-5.95,2.56-6.06,6.44-13.89,11.62-20.25,21.3-26.14,60.5-60.75,89.25-79.33,1.82-1.17,4.19-1.01,5.83.39"/>
  <g>
    <path class="cls-1" d="M575.14,318.99c7.98,0,14.94.84,20.9,2.52,5.95,1.68,10.57,4.03,13.86,7.04,3.29,3.01,4.94,6.61,4.94,10.81,0,2.8-.84,5.43-2.52,7.88-1.68,2.45-4.13,3.67-7.35,3.67-2.24,0-4.09-.31-5.57-.94-1.47-.63-2.77-1.43-3.88-2.42-1.12-.98-2.45-1.89-3.99-2.73-1.4-.84-3.54-1.5-6.4-2-2.87-.49-5.01-.73-6.41-.73-7.14,0-13.2,1.54-18.17,4.62-4.97,3.08-8.79,7.25-11.45,12.5-2.66,5.25-3.99,11.31-3.99,18.17s1.37,12.71,4.1,17.96c2.73,5.25,6.51,9.42,11.34,12.5,4.83,3.08,10.39,4.62,16.7,4.62,3.5,0,6.51-.21,9.03-.63,2.52-.42,4.62-1.05,6.3-1.89,1.96-1.12,3.71-2.31,5.25-3.57,1.54-1.26,3.85-1.89,6.93-1.89,3.64,0,6.44,1.16,8.4,3.47,1.96,2.31,2.94,5.14,2.94,8.5s-1.96,6.69-5.88,9.55c-3.92,2.87-9.07,5.18-15.44,6.93-6.37,1.75-13.27,2.62-20.68,2.62-11.06,0-20.65-2.55-28.77-7.67-8.12-5.11-14.38-12.07-18.79-20.89-4.41-8.82-6.61-18.69-6.61-29.61,0-11.48,2.34-21.59,7.03-30.34,4.69-8.75,11.2-15.61,19.53-20.58,8.33-4.97,17.88-7.46,28.67-7.46Z"/>
    <path class="cls-1" d="M646.96,433.44c-3.64,0-6.65-1.22-9.03-3.67-2.38-2.45-3.57-5.49-3.57-9.13v-86.73c0-3.64,1.19-6.68,3.57-9.13,2.38-2.45,5.39-3.67,9.03-3.67s6.65,1.23,9.03,3.67c2.38,2.45,3.57,5.5,3.57,9.13v19.74l-1.47-14.07c1.54-3.36,3.53-6.33,5.99-8.92,2.45-2.59,5.21-4.76,8.29-6.51,3.08-1.75,6.37-3.04,9.87-3.89,3.5-.84,7-1.26,10.5-1.26,4.2,0,7.73,1.19,10.6,3.57,2.87,2.38,4.31,5.18,4.31,8.4,0,4.62-1.19,7.95-3.57,9.98-2.38,2.03-4.97,3.04-7.77,3.04s-5.08-.49-7.24-1.47c-2.17-.98-4.66-1.47-7.46-1.47-2.52,0-5.08.6-7.67,1.79-2.59,1.19-4.97,3.04-7.14,5.57-2.17,2.52-3.92,5.64-5.25,9.34-1.33,3.71-2,8.08-2,13.12v49.77c0,3.64-1.19,6.69-3.57,9.13-2.38,2.45-5.39,3.67-9.03,3.67Z"/>
    <path class="cls-1" d="M814.96,318.99c3.64,0,6.65,1.19,9.03,3.57,2.38,2.38,3.57,5.46,3.57,9.24v88.83c0,3.64-1.19,6.69-3.57,9.13-2.38,2.45-5.39,3.67-9.03,3.67s-6.65-1.22-9.03-3.67c-2.38-2.45-3.57-5.49-3.57-9.13v-10.29l4.62,1.89c0,1.82-.98,4.03-2.94,6.62-1.96,2.59-4.62,5.14-7.98,7.67-3.36,2.52-7.32,4.66-11.87,6.4-4.55,1.75-9.49,2.62-14.81,2.62-9.66,0-18.41-2.48-26.25-7.46-7.84-4.97-14.04-11.83-18.58-20.58-4.55-8.75-6.82-18.8-6.82-30.14s2.27-21.59,6.82-30.34c4.55-8.75,10.67-15.61,18.38-20.58,7.7-4.97,16.24-7.46,25.62-7.46,6.02,0,11.55.91,16.59,2.73,5.04,1.82,9.41,4.13,13.12,6.93,3.71,2.8,6.58,5.64,8.61,8.5,2.03,2.87,3.04,5.29,3.04,7.25l-7.56,2.73v-15.33c0-3.64,1.19-6.68,3.57-9.14,2.38-2.45,5.39-3.67,9.03-3.67ZM772.54,412.44c6.16,0,11.55-1.54,16.17-4.62,4.62-3.08,8.22-7.28,10.82-12.6,2.59-5.32,3.88-11.27,3.88-17.85s-1.3-12.74-3.88-18.06c-2.59-5.32-6.2-9.52-10.82-12.6-4.62-3.08-10.01-4.62-16.17-4.62s-11.34,1.54-15.96,4.62c-4.62,3.08-8.23,7.28-10.82,12.6-2.59,5.32-3.88,11.34-3.88,18.06s1.29,12.53,3.88,17.85c2.59,5.32,6.2,9.52,10.82,12.6,4.62,3.08,9.94,4.62,15.96,4.62Z"/>
    <path class="cls-1" d="M914.92,323.19c3.36,0,6.16,1.09,8.4,3.25,2.24,2.17,3.36,4.94,3.36,8.29s-1.12,6.13-3.36,8.29c-2.24,2.17-5.04,3.25-8.4,3.25h-55.65c-3.36,0-6.16-1.08-8.4-3.25-2.24-2.17-3.36-4.93-3.36-8.29s1.12-6.12,3.36-8.29c2.24-2.17,5.04-3.25,8.4-3.25h55.65ZM912.61,278.04c3.08,0,6.09.42,9.03,1.26,2.94.84,5.39,2.21,7.35,4.09,1.96,1.89,2.94,4.38,2.94,7.46,0,3.5-1.02,6.27-3.04,8.29s-4.38,3.04-7.04,3.04c-1.26,0-3.15-.32-5.67-.95-2.52-.63-4.97-.94-7.35-.94-3.5,0-6.2.77-8.08,2.31-1.89,1.54-3.19,3.33-3.88,5.36-.7,2.03-1.05,3.82-1.05,5.35v107.31c0,3.64-1.19,6.69-3.57,9.13-2.38,2.45-5.39,3.67-9.03,3.67s-6.65-1.22-9.03-3.67c-2.38-2.45-3.57-5.49-3.57-9.13v-107.1c0-9.94,3.5-18.34,10.5-25.2,7-6.86,17.5-10.29,31.5-10.29Z"/>
    <path class="cls-1" d="M948.51,323.19h49.77c3.36,0,6.16,1.12,8.4,3.36,2.24,2.24,3.36,5.04,3.36,8.4s-1.12,5.92-3.36,8.08c-2.24,2.17-5.04,3.25-8.4,3.25h-49.77c-3.36,0-6.16-1.12-8.4-3.36-2.24-2.24-3.36-5.04-3.36-8.4s1.12-5.91,3.36-8.08c2.24-2.17,5.04-3.25,8.4-3.25ZM970.98,296.94c3.64,0,6.62,1.23,8.92,3.67,2.31,2.45,3.46,5.5,3.46,9.13v93.45c0,1.96.38,3.57,1.16,4.83.77,1.26,1.82,2.17,3.15,2.73,1.33.56,2.76.84,4.3.84,1.68,0,3.22-.32,4.62-.95,1.4-.63,3.01-.95,4.83-.95,1.96,0,3.74.91,5.35,2.73,1.61,1.82,2.42,4.34,2.42,7.56,0,3.92-2.14,7.14-6.4,9.66-4.27,2.52-8.86,3.78-13.75,3.78-2.94,0-6.2-.24-9.77-.74-3.57-.49-6.93-1.68-10.08-3.57-3.15-1.89-5.77-4.79-7.88-8.71-2.1-3.92-3.15-9.31-3.15-16.17v-94.5c0-3.64,1.22-6.68,3.67-9.13s5.49-3.67,9.13-3.67Z"/>
    <path class="cls-4" d="M1092.15,318.99c10.08,0,17.75,2.17,23,6.51,5.25,4.34,8.85,10.12,10.81,17.33,1.96,7.21,2.94,15.23,2.94,24.04v53.76c0,3.64-1.19,6.69-3.57,9.13-2.38,2.45-5.39,3.67-9.03,3.67s-6.65-1.22-9.03-3.67c-2.38-2.45-3.57-5.49-3.57-9.13v-53.76c0-4.62-.56-8.78-1.68-12.5-1.12-3.71-3.15-6.68-6.09-8.92-2.94-2.24-7.14-3.36-12.6-3.36s-9.87,1.12-13.65,3.36c-3.78,2.24-6.62,5.22-8.51,8.92-1.89,3.71-2.83,7.88-2.83,12.5v53.76c0,3.64-1.19,6.69-3.57,9.13-2.38,2.45-5.39,3.67-9.03,3.67s-6.65-1.22-9.03-3.67c-2.38-2.45-3.57-5.49-3.57-9.13v-129.78c0-3.64,1.19-6.68,3.57-9.13,2.38-2.45,5.39-3.68,9.03-3.68s6.65,1.23,9.03,3.68c2.38,2.45,3.57,5.5,3.57,9.13v52.08l-3.15-.63c1.26-2.38,3.01-4.94,5.25-7.67,2.24-2.73,4.97-5.28,8.19-7.67,3.22-2.38,6.79-4.31,10.71-5.78,3.92-1.47,8.19-2.21,12.81-2.21Z"/>
    <path class="cls-4" d="M1179.93,420.63c0,3.64-1.19,6.69-3.57,9.13-2.38,2.45-5.39,3.67-9.03,3.67s-6.65-1.22-9.03-3.67c-2.38-2.45-3.57-5.49-3.57-9.13v-86.73c0-3.64,1.19-6.68,3.57-9.13,2.38-2.45,5.39-3.67,9.03-3.67s6.65,1.23,9.03,3.67c2.38,2.45,3.57,5.5,3.57,9.13v86.73ZM1180.56,299.94v-10c0-.89-.55-1.72-1.44-2.16l-10.05-5c-.89-.45-1.98-.45-2.87,0l-10.05,5c-.89.45-1.43,1.27-1.44,2.16v10c0,.89.55,1.72,1.44,2.16l10.05,5c.89.45,1.98.45,2.87,0l10.05-5c.89-.45,1.43-1.27,1.44-2.16Z"/>
    <path class="cls-4" d="M1210.8,321.09c2.66,0,5.11.67,7.35,1.99,2.24,1.33,3.92,3.33,5.04,5.99l30.87,70.56-4.62,2.1,31.5-72.45c2.38-5.6,6.09-8.26,11.13-7.98,3.5,0,6.33,1.09,8.5,3.25,2.17,2.17,3.25,4.87,3.25,8.08,0,.98-.18,2.03-.52,3.15-.35,1.12-.74,2.17-1.16,3.15l-39.27,86.52c-2.24,5.04-5.81,7.7-10.71,7.98-2.66.42-5.22-.07-7.67-1.47-2.45-1.4-4.3-3.57-5.56-6.51l-39.06-86.52c-.28-.7-.6-1.61-.94-2.73-.35-1.12-.53-2.45-.53-3.99,0-2.52,1.12-5,3.36-7.46,2.24-2.45,5.25-3.67,9.03-3.67Z"/>
    <path class="cls-4" d="M1375.65,435.54c-11.9,0-22.23-2.48-30.98-7.46-8.75-4.97-15.47-11.72-20.16-20.26-4.69-8.54-7.03-18.2-7.03-28.98,0-12.6,2.55-23.34,7.67-32.24,5.11-8.89,11.79-15.71,20.05-20.47,8.26-4.76,17.01-7.14,26.25-7.14,7.14,0,13.89,1.47,20.26,4.41,6.37,2.94,12,6.97,16.91,12.08,4.9,5.11,8.78,11.02,11.66,17.75,2.87,6.72,4.3,13.86,4.3,21.42-.14,3.36-1.47,6.09-3.99,8.19-2.52,2.1-5.46,3.15-8.82,3.15h-80.22l-6.3-21h77.07l-4.62,4.2v-5.67c-.28-4.06-1.72-7.7-4.3-10.92-2.59-3.22-5.81-5.78-9.66-7.67-3.85-1.89-7.95-2.83-12.29-2.83s-8.12.56-11.76,1.68c-3.64,1.12-6.79,3.01-9.45,5.67-2.66,2.66-4.76,6.23-6.3,10.71-1.54,4.48-2.31,10.15-2.31,17.01,0,7.56,1.58,13.96,4.73,19.21,3.15,5.25,7.21,9.24,12.18,11.97,4.97,2.73,10.25,4.09,15.85,4.09,5.18,0,9.31-.42,12.39-1.26,3.08-.84,5.56-1.85,7.46-3.04,1.89-1.19,3.6-2.21,5.14-3.04,2.52-1.26,4.9-1.89,7.14-1.89,3.08,0,5.63,1.05,7.67,3.15,2.03,2.1,3.04,4.55,3.04,7.35,0,3.78-1.96,7.21-5.88,10.29-3.64,3.08-8.75,5.78-15.33,8.08-6.58,2.31-13.37,3.46-20.37,3.46Z"/>
  </g>
</svg>