<?xml version="1.0" encoding="UTF-8"?>
<svg id="Layer_3" data-name="Layer 3" xmlns="http://www.w3.org/2000/svg" viewBox="0 0 574.93 746.93">
  <defs>
    <style>
      .cls-1 {
        stroke: #ffb343;
        stroke-linecap: round;
        stroke-linejoin: round;
        stroke-width: 26.91px;
      }

      .cls-1, .cls-2 {
        fill: #ffb343;
      }
    </style>
  </defs>
  <path class="cls-1" d="M271.77,185.39v-71.26c0-6.36-3.4-12.23-8.91-15.41l-62.35-35.63c-5.51-3.18-12.3-3.18-17.81,0l-62.35,35.63c-5.51,3.18-8.9,9.05-8.91,15.41v71.26c0,6.36,3.4,12.23,8.91,15.41l62.35,35.63c5.51,3.18,12.3,3.18,17.81,0l62.35-35.63c5.51-3.18,8.9-9.05,8.91-15.41Z"/>
  <path class="cls-1" d="M271.21,639.15v-71.26c0-6.36-3.4-12.23-8.91-15.41l-62.35-35.63c-5.51-3.18-12.3-3.18-17.81,0l-62.35,35.63c-5.51,3.18-8.9,9.05-8.91,15.41v71.26c0,6.36,3.4,12.23,8.91,15.41l62.35,35.63c5.51,3.18,12.3,3.18,17.81,0l62.35-35.63c5.51-3.18,8.9-9.05,8.91-15.41Z"/>
  <path class="cls-2" d="M445.3,289.58l-102.47-58.55c-9.06-5.23-20.22-5.23-29.28,0l-102.47,58.55c-9.05,5.22-14.63,14.88-14.64,25.33v117.11c.01,10.45,5.59,20.1,14.64,25.33l102.47,58.55c9.06,5.23,20.22,5.23,29.28,0l102.47-58.55c9.05-5.22,14.63-14.88,14.64-25.33v-117.11c-.01-10.45-5.59-20.1-14.64-25.33ZM404.56,306.46c-14.98,33.58-46.43,79.98-69.46,104.16-6.46,6.75-14.42,11.9-23.23,15.02-.18,2.22-.59,5.27-1.57,8.5-1.97,6.45-6.53,14.48-16.72,17.03-9.87,2.35-20.1,2.79-30.13,1.29-1.86-.31-3.7-.75-5.5-1.32-1.66-.51-3.21-1.33-4.56-2.42-.9-.75-1.58-1.72-2-2.82-.52-1.4-.51-2.95.04-4.34.93-2.4,3.09-3.72,4.51-4.42,3.86-1.93,6.12-4.43,8.49-8.09.93-1.41,1.8-2.91,2.81-4.62l1.15-1.94c1.48-2.5,3.19-5.29,5.35-8.3,5.17-7.23,11.76-9.06,17.09-8.77,1.24.08,2.38.23,3.41.47.61-1.68,1.39-3.72,2.33-5.95,2.55-6.06,6.44-13.89,11.62-20.25,21.3-26.14,60.5-60.75,89.25-79.33,1.82-1.17,4.19-1.01,5.83.39,1.65,1.41,2.18,3.74,1.29,5.72Z"/>
</svg>