<?xml version="1.0" encoding="UTF-8"?>
<svg id="Layer_5" data-name="Layer 5" xmlns="http://www.w3.org/2000/svg" viewBox="0 0 574.93 746.93">
  <defs>
    <style>
      .cls-1 {
        fill: #5d4777;
      }

      .cls-2 {
        fill: #ffb343;
        stroke: #ffb343;
        stroke-linecap: round;
        stroke-linejoin: round;
        stroke-width: 63.55px;
      }
    </style>
  </defs>
  <path class="cls-2" d="M495.47,457.63v-184.89c-.02-16.5-8.82-31.73-23.11-39.98l-161.78-92.45c-14.3-8.26-31.92-8.26-46.22,0l-161.78,92.45c-14.29,8.25-23.09,23.49-23.11,39.98v184.89c.02,16.5,8.82,31.73,23.11,39.98l161.78,92.45c14.3,8.26,31.92,8.26,46.22,0l161.78-92.45c14.29-8.25,23.09-23.49,23.11-39.98Z"/>
  <path class="cls-1" d="M423.79,227.39c3,2.56,3.95,6.78,2.35,10.38-27.19,60.97-84.3,145.21-126.11,189.12-11.73,12.26-26.18,21.6-42.18,27.27-.32,4.03-1.07,9.56-2.84,15.43-3.57,11.71-11.86,26.29-30.36,30.93-17.92,4.27-36.49,5.07-54.71,2.35-3.38-.56-6.72-1.36-9.99-2.4-3.01-.93-5.82-2.42-8.28-4.39-1.63-1.37-2.87-3.13-3.63-5.12-.95-2.54-.92-5.35.07-7.87,1.69-4.35,5.62-6.75,8.19-8.03,7-3.5,11.11-8.05,15.41-14.68,1.69-2.56,3.27-5.28,5.1-8.39l2.08-3.52c2.68-4.53,5.79-9.6,9.7-15.07,9.38-13.14,21.35-16.44,31.03-15.93,2.25.14,4.31.43,6.19.85,1.1-3.06,2.52-6.75,4.23-10.81,4.64-11,11.7-25.22,21.1-36.77,38.68-47.46,109.84-110.31,162.05-144.04,3.3-2.13,7.61-1.84,10.59.71"/>
</svg>